<svg width="134" height="25" xmlns="http://www.w3.org/2000/svg"><path d="M12.5 8.5h.4l-.4 4.3H8.6v11.7H3.5V12.8H0V8.5h3.3c0-.4 0-3.6.2-4.3C5.1-1.4 12.8.3 13 .4V4.3S9 3.9 8.7 6v2.4h3.8zm32.3 15l.2.4-.3.1a13 13 0 0 1-8 .5 6.6 6.6 0 0 1-5.1-5c-.4-1.8-.4-3.6 0-5.4.6-3.3 3-5.3 6.6-5.7 1.7-.2 3.4-.1 5 .3a10.7 10.7 0 0 0 1.5.6c.1 0 .2 0 .2.2v.5l-.2.3-.9 2.6-2.4-.6a7 7 0 0 0-1.7 0c-1.7.1-2.8 1-3 2.7-.1.9-.2 1.8 0 2.7 1 5.4 7.1 2.5 7.1 2.5l.3.9.7 2.4zM134 8.7l-5.3 8 5.3 8h-5.6l-5-7.4v7.3H118V.6l5.4-.5V16l4.9-7.3h5.6zm-59.5 10c-.2 1.6-1.5 2.4-3 2.3l-1.2-.2a3.4 3.4 0 0 1-1.7-2.6c-.1-1.1-.2-3.5.4-4.6.5-.8 1.3-1.3 2.5-1.3 1.6 0 2.8.7 3 2.2a14 14 0 0 1 0 4.2m-.8-10.4c-2-.2-3.7.4-5.2 2V0l-5.3.7v23.9h5.3v-1.4c.7.5 1.4 1 2.2 1.3 3.1 1.1 7.2.2 8.7-3.7.9-2.6.9-5.2.2-7.7-.8-2.9-2.8-4.5-5.9-4.8m19.1 10.1v.4c-.4 1.4-1.5 2.3-3 2.2-1.7 0-2.8-1-3-2.5V15c.2-1.8 1.4-2.8 3.1-2.7 1.5 0 2.5.8 2.9 2.1.3 1.3 0 3.7 0 4m-.2-9.8c-1.8-.4-3.7-.4-5.5 0-2.8.7-4.7 2.4-5.3 5-.3 1.5-.4 3-.3 4.5.2 3.4 2.4 5.8 5.9 6.6h.1a5.8 5.8 0 0 0 .4 0l.2.1h.5c.7.1 1.6.2 2.3.1a7.2 7.2 0 0 0 7-5.6c.5-1.7.5-3.5 0-5.3a6.8 6.8 0 0 0-5.3-5.4m-68.3 10c-.1 1.6-1.4 2.4-2.9 2.4s-2.5-.8-2.9-2.2c-.4-2 .1-4.4.1-4.6.4-1.3 1.5-2 3-2 1.4 0 2.6 1 2.7 2.4.2 1.3.2 2.7 0 4zm.5-8l-.2-.2-.2-.1c-1.2-1.2-1.6-1.5-2.6-1.8-3.6-1-7.1.8-8.2 4.3-.7 2.1-.7 4.3-.3 6.5.9 4.7 4.5 6.2 8.4 5.4a5 5 0 0 0 2.9-1.9l.2-.2v2h5v-16h-5v2zM56.5 15h-5.8c0-1.1.2-2.1 1.2-2.7 1-.7 2.3-.7 3.4-.1s1.2 1.6 1.2 2.8zm4.7 2.2l-.1-3.3c-.5-3-2.4-5-5.5-5.4-1.2-.2-2.4-.2-3.6 0-3.3.2-5.8 2.2-6.3 5.1-.3 1.8-.4 3.7-.1 5.5.4 2.7 1.7 4.4 4.1 5.2 1.1.3 6.4 1.6 11.1-.6l-.2-.7-.7-2.6h-.3a9.8 9.8 0 0 0-.7.2c-.7.2-1.7.5-2.8.6h-2.7c-1.5-.2-2.7-1-2.6-2.8h10.5v-1.2zm49.7 1.2v.3c-.4 1.5-1.5 2.4-3 2.3-1.7 0-2.8-1-3-2.6V15c.2-1.8 1.3-2.8 3.1-2.7 1.5 0 2.5.8 2.9 2.1.3 1.3 0 3.7 0 4m-.2-9.8c-1.8-.5-3.7-.4-5.6 0-2.7.7-4.6 2.4-5.2 5-.3 1.5-.4 3-.3 4.5.2 3.4 2.4 5.8 5.8 6.6h.2a7.9 7.9 0 0 0 .5.1h.6c.7.1 1.5.2 2.2.1h.2a7.2 7.2 0 0 0 7-5.6c.4-1.7.4-3.5 0-5.3a6.8 6.8 0 0 0-5.4-5.4" fill="#3C5A99" fill-rule="evenodd"/></svg>